<mxfile host="app.diagrams.net" modified="2021-06-25T06:30:53.962Z" agent="5.0 (Macintosh; Intel Mac OS X 10_15_7) AppleWebKit/537.36 (KHTML, like Gecko) Chrome/91.0.4472.106 Safari/537.36" etag="mbCyjCQ2hCJLycgWdIwc" version="14.8.1" type="github">
  <diagram id="21UEtDW0NPOQMuyqvAdU" name="ページ1">
    <mxGraphModel dx="1020" dy="716" grid="1" gridSize="10" guides="1" tooltips="1" connect="1" arrows="1" fold="1" page="1" pageScale="1" pageWidth="850" pageHeight="1100" math="0" shadow="0">
      <root>
        <mxCell id="0" />
        <mxCell id="1" parent="0" />
        <mxCell id="XYLVoGnbnY9uVcoWyQoo-1" value="users" style="shape=table;startSize=30;container=1;collapsible=1;childLayout=tableLayout;fixedRows=1;rowLines=0;fontStyle=1;align=center;resizeLast=1;" vertex="1" parent="1">
          <mxGeometry x="320" y="380" width="180" height="250" as="geometry" />
        </mxCell>
        <mxCell id="XYLVoGnbnY9uVcoWyQoo-2" value="" style="shape=partialRectangle;collapsible=0;dropTarget=0;pointerEvents=0;fillColor=none;top=0;left=0;bottom=1;right=0;points=[[0,0.5],[1,0.5]];portConstraint=eastwest;" vertex="1" parent="XYLVoGnbnY9uVcoWyQoo-1">
          <mxGeometry y="30" width="180" height="30" as="geometry" />
        </mxCell>
        <mxCell id="XYLVoGnbnY9uVcoWyQoo-3" value="PK" style="shape=partialRectangle;connectable=0;fillColor=none;top=0;left=0;bottom=0;right=0;fontStyle=1;overflow=hidden;" vertex="1" parent="XYLVoGnbnY9uVcoWyQoo-2">
          <mxGeometry width="30" height="30" as="geometry" />
        </mxCell>
        <mxCell id="XYLVoGnbnY9uVcoWyQoo-4" value="ID" style="shape=partialRectangle;connectable=0;fillColor=none;top=0;left=0;bottom=0;right=0;align=left;spacingLeft=6;fontStyle=5;overflow=hidden;" vertex="1" parent="XYLVoGnbnY9uVcoWyQoo-2">
          <mxGeometry x="30" width="150" height="30" as="geometry" />
        </mxCell>
        <mxCell id="XYLVoGnbnY9uVcoWyQoo-5" value="" style="shape=partialRectangle;collapsible=0;dropTarget=0;pointerEvents=0;fillColor=none;top=0;left=0;bottom=0;right=0;points=[[0,0.5],[1,0.5]];portConstraint=eastwest;" vertex="1" parent="XYLVoGnbnY9uVcoWyQoo-1">
          <mxGeometry y="60" width="180" height="30" as="geometry" />
        </mxCell>
        <mxCell id="XYLVoGnbnY9uVcoWyQoo-6" value="" style="shape=partialRectangle;connectable=0;fillColor=none;top=0;left=0;bottom=0;right=0;editable=1;overflow=hidden;" vertex="1" parent="XYLVoGnbnY9uVcoWyQoo-5">
          <mxGeometry width="30" height="30" as="geometry" />
        </mxCell>
        <mxCell id="XYLVoGnbnY9uVcoWyQoo-7" value="name" style="shape=partialRectangle;connectable=0;fillColor=none;top=0;left=0;bottom=0;right=0;align=left;spacingLeft=6;overflow=hidden;" vertex="1" parent="XYLVoGnbnY9uVcoWyQoo-5">
          <mxGeometry x="30" width="150" height="30" as="geometry" />
        </mxCell>
        <mxCell id="XYLVoGnbnY9uVcoWyQoo-8" value="" style="shape=partialRectangle;collapsible=0;dropTarget=0;pointerEvents=0;fillColor=none;top=0;left=0;bottom=0;right=0;points=[[0,0.5],[1,0.5]];portConstraint=eastwest;" vertex="1" parent="XYLVoGnbnY9uVcoWyQoo-1">
          <mxGeometry y="90" width="180" height="30" as="geometry" />
        </mxCell>
        <mxCell id="XYLVoGnbnY9uVcoWyQoo-9" value="" style="shape=partialRectangle;connectable=0;fillColor=none;top=0;left=0;bottom=0;right=0;editable=1;overflow=hidden;" vertex="1" parent="XYLVoGnbnY9uVcoWyQoo-8">
          <mxGeometry width="30" height="30" as="geometry" />
        </mxCell>
        <mxCell id="XYLVoGnbnY9uVcoWyQoo-10" value="email" style="shape=partialRectangle;connectable=0;fillColor=none;top=0;left=0;bottom=0;right=0;align=left;spacingLeft=6;overflow=hidden;" vertex="1" parent="XYLVoGnbnY9uVcoWyQoo-8">
          <mxGeometry x="30" width="150" height="30" as="geometry" />
        </mxCell>
        <mxCell id="XYLVoGnbnY9uVcoWyQoo-11" value="" style="shape=partialRectangle;collapsible=0;dropTarget=0;pointerEvents=0;fillColor=none;top=0;left=0;bottom=0;right=0;points=[[0,0.5],[1,0.5]];portConstraint=eastwest;" vertex="1" parent="XYLVoGnbnY9uVcoWyQoo-1">
          <mxGeometry y="120" width="180" height="30" as="geometry" />
        </mxCell>
        <mxCell id="XYLVoGnbnY9uVcoWyQoo-12" value="" style="shape=partialRectangle;connectable=0;fillColor=none;top=0;left=0;bottom=0;right=0;editable=1;overflow=hidden;" vertex="1" parent="XYLVoGnbnY9uVcoWyQoo-11">
          <mxGeometry width="30" height="30" as="geometry" />
        </mxCell>
        <mxCell id="XYLVoGnbnY9uVcoWyQoo-13" value="crypted_password" style="shape=partialRectangle;connectable=0;fillColor=none;top=0;left=0;bottom=0;right=0;align=left;spacingLeft=6;overflow=hidden;" vertex="1" parent="XYLVoGnbnY9uVcoWyQoo-11">
          <mxGeometry x="30" width="150" height="30" as="geometry" />
        </mxCell>
        <mxCell id="XYLVoGnbnY9uVcoWyQoo-14" value="" style="shape=partialRectangle;collapsible=0;dropTarget=0;pointerEvents=0;fillColor=none;top=0;left=0;bottom=0;right=0;points=[[0,0.5],[1,0.5]];portConstraint=eastwest;" vertex="1" parent="XYLVoGnbnY9uVcoWyQoo-1">
          <mxGeometry y="150" width="180" height="30" as="geometry" />
        </mxCell>
        <mxCell id="XYLVoGnbnY9uVcoWyQoo-15" value="" style="shape=partialRectangle;connectable=0;fillColor=none;top=0;left=0;bottom=0;right=0;editable=1;overflow=hidden;" vertex="1" parent="XYLVoGnbnY9uVcoWyQoo-14">
          <mxGeometry width="30" height="30" as="geometry" />
        </mxCell>
        <mxCell id="XYLVoGnbnY9uVcoWyQoo-16" value="salt" style="shape=partialRectangle;connectable=0;fillColor=none;top=0;left=0;bottom=0;right=0;align=left;spacingLeft=6;overflow=hidden;" vertex="1" parent="XYLVoGnbnY9uVcoWyQoo-14">
          <mxGeometry x="30" width="150" height="30" as="geometry" />
        </mxCell>
        <mxCell id="XYLVoGnbnY9uVcoWyQoo-17" value="" style="shape=partialRectangle;collapsible=0;dropTarget=0;pointerEvents=0;fillColor=none;top=0;left=0;bottom=0;right=0;points=[[0,0.5],[1,0.5]];portConstraint=eastwest;" vertex="1" parent="XYLVoGnbnY9uVcoWyQoo-1">
          <mxGeometry y="180" width="180" height="30" as="geometry" />
        </mxCell>
        <mxCell id="XYLVoGnbnY9uVcoWyQoo-18" value="" style="shape=partialRectangle;connectable=0;fillColor=none;top=0;left=0;bottom=0;right=0;editable=1;overflow=hidden;" vertex="1" parent="XYLVoGnbnY9uVcoWyQoo-17">
          <mxGeometry width="30" height="30" as="geometry" />
        </mxCell>
        <mxCell id="XYLVoGnbnY9uVcoWyQoo-19" value="created_at" style="shape=partialRectangle;connectable=0;fillColor=none;top=0;left=0;bottom=0;right=0;align=left;spacingLeft=6;overflow=hidden;" vertex="1" parent="XYLVoGnbnY9uVcoWyQoo-17">
          <mxGeometry x="30" width="150" height="30" as="geometry" />
        </mxCell>
        <mxCell id="XYLVoGnbnY9uVcoWyQoo-20" value="" style="shape=partialRectangle;collapsible=0;dropTarget=0;pointerEvents=0;fillColor=none;top=0;left=0;bottom=0;right=0;points=[[0,0.5],[1,0.5]];portConstraint=eastwest;" vertex="1" parent="XYLVoGnbnY9uVcoWyQoo-1">
          <mxGeometry y="210" width="180" height="30" as="geometry" />
        </mxCell>
        <mxCell id="XYLVoGnbnY9uVcoWyQoo-21" value="" style="shape=partialRectangle;connectable=0;fillColor=none;top=0;left=0;bottom=0;right=0;editable=1;overflow=hidden;" vertex="1" parent="XYLVoGnbnY9uVcoWyQoo-20">
          <mxGeometry width="30" height="30" as="geometry" />
        </mxCell>
        <mxCell id="XYLVoGnbnY9uVcoWyQoo-22" value="updated_at" style="shape=partialRectangle;connectable=0;fillColor=none;top=0;left=0;bottom=0;right=0;align=left;spacingLeft=6;overflow=hidden;" vertex="1" parent="XYLVoGnbnY9uVcoWyQoo-20">
          <mxGeometry x="30" width="150" height="30" as="geometry" />
        </mxCell>
        <mxCell id="XYLVoGnbnY9uVcoWyQoo-23" value="results" style="shape=table;startSize=30;container=1;collapsible=1;childLayout=tableLayout;fixedRows=1;rowLines=0;fontStyle=1;align=center;resizeLast=1;" vertex="1" parent="1">
          <mxGeometry x="600" y="380" width="180" height="370" as="geometry" />
        </mxCell>
        <mxCell id="XYLVoGnbnY9uVcoWyQoo-24" value="" style="shape=partialRectangle;collapsible=0;dropTarget=0;pointerEvents=0;fillColor=none;top=0;left=0;bottom=1;right=0;points=[[0,0.5],[1,0.5]];portConstraint=eastwest;" vertex="1" parent="XYLVoGnbnY9uVcoWyQoo-23">
          <mxGeometry y="30" width="180" height="30" as="geometry" />
        </mxCell>
        <mxCell id="XYLVoGnbnY9uVcoWyQoo-25" value="PK" style="shape=partialRectangle;connectable=0;fillColor=none;top=0;left=0;bottom=0;right=0;fontStyle=1;overflow=hidden;" vertex="1" parent="XYLVoGnbnY9uVcoWyQoo-24">
          <mxGeometry width="30" height="30" as="geometry" />
        </mxCell>
        <mxCell id="XYLVoGnbnY9uVcoWyQoo-26" value="ID" style="shape=partialRectangle;connectable=0;fillColor=none;top=0;left=0;bottom=0;right=0;align=left;spacingLeft=6;fontStyle=5;overflow=hidden;" vertex="1" parent="XYLVoGnbnY9uVcoWyQoo-24">
          <mxGeometry x="30" width="150" height="30" as="geometry" />
        </mxCell>
        <mxCell id="XYLVoGnbnY9uVcoWyQoo-27" value="" style="shape=partialRectangle;collapsible=0;dropTarget=0;pointerEvents=0;fillColor=none;top=0;left=0;bottom=0;right=0;points=[[0,0.5],[1,0.5]];portConstraint=eastwest;" vertex="1" parent="XYLVoGnbnY9uVcoWyQoo-23">
          <mxGeometry y="60" width="180" height="30" as="geometry" />
        </mxCell>
        <mxCell id="XYLVoGnbnY9uVcoWyQoo-28" value="FK" style="shape=partialRectangle;connectable=0;fillColor=none;top=0;left=0;bottom=0;right=0;editable=1;overflow=hidden;" vertex="1" parent="XYLVoGnbnY9uVcoWyQoo-27">
          <mxGeometry width="30" height="30" as="geometry" />
        </mxCell>
        <mxCell id="XYLVoGnbnY9uVcoWyQoo-29" value="user_id" style="shape=partialRectangle;connectable=0;fillColor=none;top=0;left=0;bottom=0;right=0;align=left;spacingLeft=6;overflow=hidden;" vertex="1" parent="XYLVoGnbnY9uVcoWyQoo-27">
          <mxGeometry x="30" width="150" height="30" as="geometry" />
        </mxCell>
        <mxCell id="XYLVoGnbnY9uVcoWyQoo-30" value="" style="shape=partialRectangle;collapsible=0;dropTarget=0;pointerEvents=0;fillColor=none;top=0;left=0;bottom=0;right=0;points=[[0,0.5],[1,0.5]];portConstraint=eastwest;" vertex="1" parent="XYLVoGnbnY9uVcoWyQoo-23">
          <mxGeometry y="90" width="180" height="30" as="geometry" />
        </mxCell>
        <mxCell id="XYLVoGnbnY9uVcoWyQoo-31" value="FK" style="shape=partialRectangle;connectable=0;fillColor=none;top=0;left=0;bottom=0;right=0;editable=1;overflow=hidden;" vertex="1" parent="XYLVoGnbnY9uVcoWyQoo-30">
          <mxGeometry width="30" height="30" as="geometry" />
        </mxCell>
        <mxCell id="XYLVoGnbnY9uVcoWyQoo-32" value="chart_id" style="shape=partialRectangle;connectable=0;fillColor=none;top=0;left=0;bottom=0;right=0;align=left;spacingLeft=6;overflow=hidden;" vertex="1" parent="XYLVoGnbnY9uVcoWyQoo-30">
          <mxGeometry x="30" width="150" height="30" as="geometry" />
        </mxCell>
        <mxCell id="XYLVoGnbnY9uVcoWyQoo-33" value="" style="shape=partialRectangle;collapsible=0;dropTarget=0;pointerEvents=0;fillColor=none;top=0;left=0;bottom=0;right=0;points=[[0,0.5],[1,0.5]];portConstraint=eastwest;" vertex="1" parent="XYLVoGnbnY9uVcoWyQoo-23">
          <mxGeometry y="120" width="180" height="30" as="geometry" />
        </mxCell>
        <mxCell id="XYLVoGnbnY9uVcoWyQoo-34" value="" style="shape=partialRectangle;connectable=0;fillColor=none;top=0;left=0;bottom=0;right=0;editable=1;overflow=hidden;" vertex="1" parent="XYLVoGnbnY9uVcoWyQoo-33">
          <mxGeometry width="30" height="30" as="geometry" />
        </mxCell>
        <mxCell id="XYLVoGnbnY9uVcoWyQoo-35" value="option" style="shape=partialRectangle;connectable=0;fillColor=none;top=0;left=0;bottom=0;right=0;align=left;spacingLeft=6;overflow=hidden;" vertex="1" parent="XYLVoGnbnY9uVcoWyQoo-33">
          <mxGeometry x="30" width="150" height="30" as="geometry" />
        </mxCell>
        <mxCell id="XYLVoGnbnY9uVcoWyQoo-36" value="" style="shape=partialRectangle;collapsible=0;dropTarget=0;pointerEvents=0;fillColor=none;top=0;left=0;bottom=0;right=0;points=[[0,0.5],[1,0.5]];portConstraint=eastwest;" vertex="1" parent="XYLVoGnbnY9uVcoWyQoo-23">
          <mxGeometry y="150" width="180" height="30" as="geometry" />
        </mxCell>
        <mxCell id="XYLVoGnbnY9uVcoWyQoo-37" value="" style="shape=partialRectangle;connectable=0;fillColor=none;top=0;left=0;bottom=0;right=0;editable=1;overflow=hidden;" vertex="1" parent="XYLVoGnbnY9uVcoWyQoo-36">
          <mxGeometry width="30" height="30" as="geometry" />
        </mxCell>
        <mxCell id="XYLVoGnbnY9uVcoWyQoo-38" value="medal" style="shape=partialRectangle;connectable=0;fillColor=none;top=0;left=0;bottom=0;right=0;align=left;spacingLeft=6;overflow=hidden;" vertex="1" parent="XYLVoGnbnY9uVcoWyQoo-36">
          <mxGeometry x="30" width="150" height="30" as="geometry" />
        </mxCell>
        <mxCell id="XYLVoGnbnY9uVcoWyQoo-39" value="" style="shape=partialRectangle;collapsible=0;dropTarget=0;pointerEvents=0;fillColor=none;top=0;left=0;bottom=0;right=0;points=[[0,0.5],[1,0.5]];portConstraint=eastwest;" vertex="1" parent="XYLVoGnbnY9uVcoWyQoo-23">
          <mxGeometry y="180" width="180" height="30" as="geometry" />
        </mxCell>
        <mxCell id="XYLVoGnbnY9uVcoWyQoo-40" value="" style="shape=partialRectangle;connectable=0;fillColor=none;top=0;left=0;bottom=0;right=0;editable=1;overflow=hidden;" vertex="1" parent="XYLVoGnbnY9uVcoWyQoo-39">
          <mxGeometry width="30" height="30" as="geometry" />
        </mxCell>
        <mxCell id="XYLVoGnbnY9uVcoWyQoo-41" value="score" style="shape=partialRectangle;connectable=0;fillColor=none;top=0;left=0;bottom=0;right=0;align=left;spacingLeft=6;overflow=hidden;" vertex="1" parent="XYLVoGnbnY9uVcoWyQoo-39">
          <mxGeometry x="30" width="150" height="30" as="geometry" />
        </mxCell>
        <mxCell id="XYLVoGnbnY9uVcoWyQoo-42" value="" style="shape=partialRectangle;collapsible=0;dropTarget=0;pointerEvents=0;fillColor=none;top=0;left=0;bottom=0;right=0;points=[[0,0.5],[1,0.5]];portConstraint=eastwest;" vertex="1" parent="XYLVoGnbnY9uVcoWyQoo-23">
          <mxGeometry y="210" width="180" height="30" as="geometry" />
        </mxCell>
        <mxCell id="XYLVoGnbnY9uVcoWyQoo-43" value="" style="shape=partialRectangle;connectable=0;fillColor=none;top=0;left=0;bottom=0;right=0;editable=1;overflow=hidden;" vertex="1" parent="XYLVoGnbnY9uVcoWyQoo-42">
          <mxGeometry width="30" height="30" as="geometry" />
        </mxCell>
        <mxCell id="XYLVoGnbnY9uVcoWyQoo-44" value="cool" style="shape=partialRectangle;connectable=0;fillColor=none;top=0;left=0;bottom=0;right=0;align=left;spacingLeft=6;overflow=hidden;" vertex="1" parent="XYLVoGnbnY9uVcoWyQoo-42">
          <mxGeometry x="30" width="150" height="30" as="geometry" />
        </mxCell>
        <mxCell id="XYLVoGnbnY9uVcoWyQoo-45" value="" style="shape=partialRectangle;collapsible=0;dropTarget=0;pointerEvents=0;fillColor=none;top=0;left=0;bottom=0;right=0;points=[[0,0.5],[1,0.5]];portConstraint=eastwest;" vertex="1" parent="XYLVoGnbnY9uVcoWyQoo-23">
          <mxGeometry y="240" width="180" height="30" as="geometry" />
        </mxCell>
        <mxCell id="XYLVoGnbnY9uVcoWyQoo-46" value="" style="shape=partialRectangle;connectable=0;fillColor=none;top=0;left=0;bottom=0;right=0;editable=1;overflow=hidden;" vertex="1" parent="XYLVoGnbnY9uVcoWyQoo-45">
          <mxGeometry width="30" height="30" as="geometry" />
        </mxCell>
        <mxCell id="XYLVoGnbnY9uVcoWyQoo-47" value="great" style="shape=partialRectangle;connectable=0;fillColor=none;top=0;left=0;bottom=0;right=0;align=left;spacingLeft=6;overflow=hidden;" vertex="1" parent="XYLVoGnbnY9uVcoWyQoo-45">
          <mxGeometry x="30" width="150" height="30" as="geometry" />
        </mxCell>
        <mxCell id="XYLVoGnbnY9uVcoWyQoo-48" value="" style="shape=partialRectangle;collapsible=0;dropTarget=0;pointerEvents=0;fillColor=none;top=0;left=0;bottom=0;right=0;points=[[0,0.5],[1,0.5]];portConstraint=eastwest;" vertex="1" parent="XYLVoGnbnY9uVcoWyQoo-23">
          <mxGeometry y="270" width="180" height="30" as="geometry" />
        </mxCell>
        <mxCell id="XYLVoGnbnY9uVcoWyQoo-49" value="" style="shape=partialRectangle;connectable=0;fillColor=none;top=0;left=0;bottom=0;right=0;editable=1;overflow=hidden;" vertex="1" parent="XYLVoGnbnY9uVcoWyQoo-48">
          <mxGeometry width="30" height="30" as="geometry" />
        </mxCell>
        <mxCell id="XYLVoGnbnY9uVcoWyQoo-50" value="good" style="shape=partialRectangle;connectable=0;fillColor=none;top=0;left=0;bottom=0;right=0;align=left;spacingLeft=6;overflow=hidden;" vertex="1" parent="XYLVoGnbnY9uVcoWyQoo-48">
          <mxGeometry x="30" width="150" height="30" as="geometry" />
        </mxCell>
        <mxCell id="XYLVoGnbnY9uVcoWyQoo-51" value="" style="shape=partialRectangle;collapsible=0;dropTarget=0;pointerEvents=0;fillColor=none;top=0;left=0;bottom=0;right=0;points=[[0,0.5],[1,0.5]];portConstraint=eastwest;" vertex="1" parent="XYLVoGnbnY9uVcoWyQoo-23">
          <mxGeometry y="300" width="180" height="30" as="geometry" />
        </mxCell>
        <mxCell id="XYLVoGnbnY9uVcoWyQoo-52" value="" style="shape=partialRectangle;connectable=0;fillColor=none;top=0;left=0;bottom=0;right=0;editable=1;overflow=hidden;" vertex="1" parent="XYLVoGnbnY9uVcoWyQoo-51">
          <mxGeometry width="30" height="30" as="geometry" />
        </mxCell>
        <mxCell id="XYLVoGnbnY9uVcoWyQoo-53" value="bad" style="shape=partialRectangle;connectable=0;fillColor=none;top=0;left=0;bottom=0;right=0;align=left;spacingLeft=6;overflow=hidden;" vertex="1" parent="XYLVoGnbnY9uVcoWyQoo-51">
          <mxGeometry x="30" width="150" height="30" as="geometry" />
        </mxCell>
        <mxCell id="XYLVoGnbnY9uVcoWyQoo-54" value="" style="shape=partialRectangle;collapsible=0;dropTarget=0;pointerEvents=0;fillColor=none;top=0;left=0;bottom=0;right=0;points=[[0,0.5],[1,0.5]];portConstraint=eastwest;" vertex="1" parent="XYLVoGnbnY9uVcoWyQoo-23">
          <mxGeometry y="330" width="180" height="30" as="geometry" />
        </mxCell>
        <mxCell id="XYLVoGnbnY9uVcoWyQoo-55" value="" style="shape=partialRectangle;connectable=0;fillColor=none;top=0;left=0;bottom=0;right=0;editable=1;overflow=hidden;" vertex="1" parent="XYLVoGnbnY9uVcoWyQoo-54">
          <mxGeometry width="30" height="30" as="geometry" />
        </mxCell>
        <mxCell id="XYLVoGnbnY9uVcoWyQoo-56" value="created_at" style="shape=partialRectangle;connectable=0;fillColor=none;top=0;left=0;bottom=0;right=0;align=left;spacingLeft=6;overflow=hidden;" vertex="1" parent="XYLVoGnbnY9uVcoWyQoo-54">
          <mxGeometry x="30" width="150" height="30" as="geometry" />
        </mxCell>
        <mxCell id="XYLVoGnbnY9uVcoWyQoo-57" value="" style="edgeStyle=entityRelationEdgeStyle;fontSize=12;html=1;endArrow=ERoneToMany;entryX=0;entryY=0.5;entryDx=0;entryDy=0;exitX=1;exitY=0.5;exitDx=0;exitDy=0;" edge="1" parent="1" source="XYLVoGnbnY9uVcoWyQoo-11">
          <mxGeometry width="100" height="100" relative="1" as="geometry">
            <mxPoint x="360" y="580" as="sourcePoint" />
            <mxPoint x="600" y="515" as="targetPoint" />
          </mxGeometry>
        </mxCell>
        <mxCell id="XYLVoGnbnY9uVcoWyQoo-58" value="charts" style="shape=table;startSize=30;container=1;collapsible=1;childLayout=tableLayout;fixedRows=1;rowLines=0;fontStyle=1;align=center;resizeLast=1;" vertex="1" parent="1">
          <mxGeometry x="320" y="720" width="180" height="160" as="geometry" />
        </mxCell>
        <mxCell id="XYLVoGnbnY9uVcoWyQoo-59" value="" style="shape=partialRectangle;collapsible=0;dropTarget=0;pointerEvents=0;fillColor=none;top=0;left=0;bottom=1;right=0;points=[[0,0.5],[1,0.5]];portConstraint=eastwest;" vertex="1" parent="XYLVoGnbnY9uVcoWyQoo-58">
          <mxGeometry y="30" width="180" height="30" as="geometry" />
        </mxCell>
        <mxCell id="XYLVoGnbnY9uVcoWyQoo-60" value="PK" style="shape=partialRectangle;connectable=0;fillColor=none;top=0;left=0;bottom=0;right=0;fontStyle=1;overflow=hidden;" vertex="1" parent="XYLVoGnbnY9uVcoWyQoo-59">
          <mxGeometry width="30" height="30" as="geometry" />
        </mxCell>
        <mxCell id="XYLVoGnbnY9uVcoWyQoo-61" value="ID" style="shape=partialRectangle;connectable=0;fillColor=none;top=0;left=0;bottom=0;right=0;align=left;spacingLeft=6;fontStyle=5;overflow=hidden;" vertex="1" parent="XYLVoGnbnY9uVcoWyQoo-59">
          <mxGeometry x="30" width="150" height="30" as="geometry" />
        </mxCell>
        <mxCell id="XYLVoGnbnY9uVcoWyQoo-62" value="" style="shape=partialRectangle;collapsible=0;dropTarget=0;pointerEvents=0;fillColor=none;top=0;left=0;bottom=0;right=0;points=[[0,0.5],[1,0.5]];portConstraint=eastwest;" vertex="1" parent="XYLVoGnbnY9uVcoWyQoo-58">
          <mxGeometry y="60" width="180" height="30" as="geometry" />
        </mxCell>
        <mxCell id="XYLVoGnbnY9uVcoWyQoo-63" value="FK" style="shape=partialRectangle;connectable=0;fillColor=none;top=0;left=0;bottom=0;right=0;editable=1;overflow=hidden;" vertex="1" parent="XYLVoGnbnY9uVcoWyQoo-62">
          <mxGeometry width="30" height="30" as="geometry" />
        </mxCell>
        <mxCell id="XYLVoGnbnY9uVcoWyQoo-64" value="level_id" style="shape=partialRectangle;connectable=0;fillColor=none;top=0;left=0;bottom=0;right=0;align=left;spacingLeft=6;overflow=hidden;" vertex="1" parent="XYLVoGnbnY9uVcoWyQoo-62">
          <mxGeometry x="30" width="150" height="30" as="geometry" />
        </mxCell>
        <mxCell id="XYLVoGnbnY9uVcoWyQoo-65" value="" style="shape=partialRectangle;collapsible=0;dropTarget=0;pointerEvents=0;fillColor=none;top=0;left=0;bottom=0;right=0;points=[[0,0.5],[1,0.5]];portConstraint=eastwest;" vertex="1" parent="XYLVoGnbnY9uVcoWyQoo-58">
          <mxGeometry y="90" width="180" height="30" as="geometry" />
        </mxCell>
        <mxCell id="XYLVoGnbnY9uVcoWyQoo-66" value="" style="shape=partialRectangle;connectable=0;fillColor=none;top=0;left=0;bottom=0;right=0;editable=1;overflow=hidden;" vertex="1" parent="XYLVoGnbnY9uVcoWyQoo-65">
          <mxGeometry width="30" height="30" as="geometry" />
        </mxCell>
        <mxCell id="XYLVoGnbnY9uVcoWyQoo-67" value="name" style="shape=partialRectangle;connectable=0;fillColor=none;top=0;left=0;bottom=0;right=0;align=left;spacingLeft=6;overflow=hidden;" vertex="1" parent="XYLVoGnbnY9uVcoWyQoo-65">
          <mxGeometry x="30" width="150" height="30" as="geometry" />
        </mxCell>
        <mxCell id="XYLVoGnbnY9uVcoWyQoo-68" value="" style="shape=partialRectangle;collapsible=0;dropTarget=0;pointerEvents=0;fillColor=none;top=0;left=0;bottom=0;right=0;points=[[0,0.5],[1,0.5]];portConstraint=eastwest;" vertex="1" parent="XYLVoGnbnY9uVcoWyQoo-58">
          <mxGeometry y="120" width="180" height="30" as="geometry" />
        </mxCell>
        <mxCell id="XYLVoGnbnY9uVcoWyQoo-69" value="" style="shape=partialRectangle;connectable=0;fillColor=none;top=0;left=0;bottom=0;right=0;editable=1;overflow=hidden;" vertex="1" parent="XYLVoGnbnY9uVcoWyQoo-68">
          <mxGeometry width="30" height="30" as="geometry" />
        </mxCell>
        <mxCell id="XYLVoGnbnY9uVcoWyQoo-70" value="difficulty" style="shape=partialRectangle;connectable=0;fillColor=none;top=0;left=0;bottom=0;right=0;align=left;spacingLeft=6;overflow=hidden;" vertex="1" parent="XYLVoGnbnY9uVcoWyQoo-68">
          <mxGeometry x="30" width="150" height="30" as="geometry" />
        </mxCell>
        <mxCell id="XYLVoGnbnY9uVcoWyQoo-71" value="" style="edgeStyle=entityRelationEdgeStyle;fontSize=12;html=1;endArrow=ERoneToMany;exitX=1.002;exitY=1.039;exitDx=0;exitDy=0;exitPerimeter=0;entryX=0;entryY=0.5;entryDx=0;entryDy=0;" edge="1" parent="1" source="XYLVoGnbnY9uVcoWyQoo-65" target="XYLVoGnbnY9uVcoWyQoo-42">
          <mxGeometry width="100" height="100" relative="1" as="geometry">
            <mxPoint x="300" y="670" as="sourcePoint" />
            <mxPoint x="400" y="570" as="targetPoint" />
          </mxGeometry>
        </mxCell>
        <mxCell id="XYLVoGnbnY9uVcoWyQoo-72" value="levels" style="shape=table;startSize=30;container=1;collapsible=1;childLayout=tableLayout;fixedRows=1;rowLines=0;fontStyle=1;align=center;resizeLast=1;" vertex="1" parent="1">
          <mxGeometry x="40" y="720" width="180" height="70" as="geometry" />
        </mxCell>
        <mxCell id="XYLVoGnbnY9uVcoWyQoo-73" value="" style="shape=partialRectangle;collapsible=0;dropTarget=0;pointerEvents=0;fillColor=none;top=0;left=0;bottom=1;right=0;points=[[0,0.5],[1,0.5]];portConstraint=eastwest;" vertex="1" parent="XYLVoGnbnY9uVcoWyQoo-72">
          <mxGeometry y="30" width="180" height="30" as="geometry" />
        </mxCell>
        <mxCell id="XYLVoGnbnY9uVcoWyQoo-74" value="PK" style="shape=partialRectangle;connectable=0;fillColor=none;top=0;left=0;bottom=0;right=0;fontStyle=1;overflow=hidden;" vertex="1" parent="XYLVoGnbnY9uVcoWyQoo-73">
          <mxGeometry width="30" height="30" as="geometry" />
        </mxCell>
        <mxCell id="XYLVoGnbnY9uVcoWyQoo-75" value="ID" style="shape=partialRectangle;connectable=0;fillColor=none;top=0;left=0;bottom=0;right=0;align=left;spacingLeft=6;fontStyle=5;overflow=hidden;" vertex="1" parent="XYLVoGnbnY9uVcoWyQoo-73">
          <mxGeometry x="30" width="150" height="30" as="geometry" />
        </mxCell>
        <mxCell id="XYLVoGnbnY9uVcoWyQoo-76" value="" style="edgeStyle=entityRelationEdgeStyle;fontSize=12;html=1;endArrow=ERoneToMany;exitX=1.011;exitY=0.317;exitDx=0;exitDy=0;exitPerimeter=0;entryX=0.002;entryY=1.039;entryDx=0;entryDy=0;entryPerimeter=0;" edge="1" parent="1" source="XYLVoGnbnY9uVcoWyQoo-73" target="XYLVoGnbnY9uVcoWyQoo-65">
          <mxGeometry width="100" height="100" relative="1" as="geometry">
            <mxPoint x="300" y="670" as="sourcePoint" />
            <mxPoint x="400" y="570" as="targetPoint" />
          </mxGeometry>
        </mxCell>
      </root>
    </mxGraphModel>
  </diagram>
</mxfile>
